<svg xmlns="http://www.w3.org/2000/svg" viewBox="160 180 180 140">
<path fill="currentColor" d="
M272.136841,193.549835
	C278.755310,194.485443 284.698334,196.363754 289.811554,199.844574
	C293.835144,202.583618 296.627228,201.354538 299.963257,198.941818
	C303.004547,196.742279 304.610260,193.502106 307.097107,190.821732
	C307.159912,196.913605 303.264648,200.668488 298.677521,204.445450
	C300.382172,206.773804 302.010956,208.998550 304.010406,211.729599
	C307.730988,208.473038 311.789337,205.848389 313.504486,201.094925
	C314.069305,199.529541 314.398041,198.222778 316.424713,198.577469
	C318.845459,199.001114 320.234924,200.611206 320.893219,202.796204
	C321.466705,204.699753 320.099884,205.669830 318.538055,205.935059
	C313.993073,206.706863 311.997559,210.796417 308.749603,213.238083
	C306.501099,214.928421 307.983978,216.820099 308.900787,218.557571
	C313.634033,227.527695 316.390137,236.940826 316.413849,247.215256
	C316.489471,279.976776 286.760406,305.102875 254.379791,299.389404
	C245.785202,297.872894 237.720398,297.847351 231.723251,305.628296
	C231.515182,305.898254 230.875687,305.835693 229.814224,306.059448
	C232.170258,299.318420 235.545944,293.754333 239.976303,288.479095
	C237.288757,291.546143 234.522461,291.884583 231.726852,289.029907
	C228.985168,286.230347 226.527390,286.813965 223.415634,288.805939
	C212.784302,295.611481 202.535782,303.322815 189.718185,305.740387
	C183.884232,306.840759 178.009140,307.022125 171.060562,304.693634
	C176.115250,302.372375 180.586258,302.187378 184.284821,299.855347
	C186.817780,298.258270 189.604446,297.030609 191.731827,294.870392
	C193.719772,292.851746 195.669418,291.468781 198.754684,292.704712
	C199.845245,293.141571 201.483749,292.844269 202.650406,292.354309
	C210.009232,289.263641 217.179214,285.793060 223.675018,281.263794
	C210.705765,265.504730 207.732590,247.935669 214.103027,229.222717
	C220.508530,210.406754 233.666458,198.231293 253.381424,193.729660
	C259.470551,192.339294 265.577423,192.177505 272.136841,193.549835
M302.538361,274.597717
	C315.799194,258.442139 313.193207,229.809494 302.789825,220.032745
	C298.707550,221.277328 297.389282,228.305252 290.548340,225.761948
	C293.952576,221.571289 298.661621,219.317444 300.300201,214.237854
	C297.989777,212.075500 294.655182,210.864777 293.930786,206.690933
	C284.938782,217.719772 275.695435,208.417313 266.373230,207.512939
	C266.889191,211.503784 267.049805,214.804947 269.717041,217.187210
	C271.619354,217.607590 273.291168,214.867004 274.906982,216.614044
	C277.330444,219.234314 280.486267,219.195679 283.537109,219.747726
	C285.224854,220.053131 286.919281,220.687134 287.715942,222.208649
	C290.653351,227.818695 295.737244,231.479965 299.902374,235.969025
	C302.410828,238.672562 304.975281,241.389420 305.797577,245.074295
	C306.511230,248.272247 307.638153,252.117752 304.581635,254.410812
	C300.882416,257.186005 298.306488,261.102448 294.265930,263.528168
	C292.141571,264.803467 290.230255,266.880646 289.495941,269.619537
	C291.269470,271.137939 293.370850,271.018036 295.211700,271.617432
	C297.656555,272.413574 300.634735,272.105621 301.121765,275.223511
	C297.568298,275.223511 294.014862,275.223511 289.448914,275.223511
	C297.490906,281.676758 298.533752,281.578735 302.538361,274.597717
M236.378830,262.939178
	C236.717163,265.174774 237.055481,267.410370 237.393051,269.640991
	C243.271255,268.534576 244.484299,259.956818 251.645233,262.567474
	C250.930542,256.760040 248.896484,251.775375 247.068054,246.801483
	C244.550049,239.951675 244.787582,237.308319 250.474655,233.021179
	C254.402771,230.059982 254.151855,226.634766 252.297211,222.897232
	C251.035934,220.355499 249.674149,217.882828 249.163223,215.056122
	C248.588593,211.877045 249.249054,208.949722 251.836105,206.968582
	C253.850800,205.425735 255.339081,203.798508 256.507599,201.455566
	C257.796875,198.870422 259.829926,198.344391 263.094208,199.980026
	C270.008636,203.444656 277.718750,204.063095 286.518951,204.783264
	C283.114777,201.450195 279.999451,200.263840 276.830261,199.474716
	C264.447571,196.391327 252.482483,197.222153 241.018936,203.362045
	C237.712112,205.133194 236.168182,207.143372 236.220398,211.096130
	C236.444809,228.076935 236.336014,245.062149 236.378830,262.939178
M232.601257,236.502579
	C232.607086,232.838104 232.449493,229.164078 232.663391,225.511780
	C232.890335,221.636765 230.781067,221.000793 227.671555,221.385559
	C223.121460,221.948593 224.341461,225.310745 224.085175,227.919006
	C225.861862,228.989578 227.787979,227.322754 229.368042,229.359711
	C229.074814,235.951904 228.760513,242.895920 228.461472,249.840607
	C228.400558,251.255081 228.538452,252.637787 230.406647,252.676956
	C232.186920,252.714294 232.604553,251.457382 232.609421,249.990494
	C232.623215,245.826248 232.607117,241.661911 232.601257,236.502579
M228.504593,275.118652
	C231.440445,279.134003 233.392242,274.801483 233.379700,273.715088
	C233.313858,268.005249 232.527267,262.303772 231.990952,256.599365
	C231.370529,256.576538 230.750092,256.553711 230.129654,256.530884
	C228.395081,262.292175 228.191452,268.297882 228.504593,275.118652
M221.731506,258.448212
	C221.502365,259.352570 220.856476,260.477325 222.545349,260.573303
	C223.996277,260.655762 225.308289,260.120026 225.444061,258.523102
	C225.653091,256.064331 225.695068,253.578430 225.603836,251.111588
	C225.542267,249.446915 226.492462,247.056641 223.995346,246.520416
	C221.654053,246.017670 219.483994,246.784149 218.185913,249.942825
	C224.678543,250.307785 220.253387,255.212143 221.731506,258.448212
M236.070450,284.306030
	C236.490402,285.853119 237.147079,286.892883 238.675812,285.260925
	C240.223663,283.608521 241.688309,281.878174 243.176773,280.196259
	C242.269455,278.570618 241.739532,276.967224 239.745834,276.597504
	C237.050964,278.189240 234.997162,280.102905 236.070450,284.306030
M278.981049,259.612396
	C279.755707,261.483246 278.658569,263.800079 280.180908,265.587799
	C284.911530,262.099304 285.877106,257.783081 282.696655,254.500183
	C281.566589,256.060028 281.048676,258.062897 278.981049,259.612396
M225.002274,232.852707
	C223.227585,231.558243 220.883545,231.309189 219.282837,229.041718
	C218.366440,231.751389 217.333313,233.748718 217.807007,236.069107
	C222.094849,236.306519 222.094849,236.306519 225.002274,232.852707
M229.137314,212.752533
	C228.140717,214.157791 226.410156,215.116074 226.380234,217.144348
	C232.486847,218.087036 233.598358,216.699417 231.757126,210.257355
	C230.977264,210.975281 230.267990,211.628235 229.137314,212.752533
M223.588837,238.553177
	C221.766098,239.982834 218.120911,239.343185 218.248520,243.386093
	C220.875000,243.924667 223.237686,243.521576 225.008606,241.674393
	C225.914688,240.729294 225.971329,239.216766 223.588837,238.553177
M246.080200,276.737183
	C245.973236,277.319550 244.821335,278.661499 246.279404,278.259979
	C248.234787,277.721527 249.982254,276.225403 250.310089,273.517212
	C248.386383,272.562683 246.955612,270.323334 244.192932,271.148682
	C243.786316,273.572968 248.698257,273.267181 246.080200,276.737183
M222.017929,266.379639
	C223.414108,268.269714 225.006775,268.067261 226.392212,266.525116
	C227.033142,265.811707 227.042603,264.453125 226.112106,263.897339
	C224.035767,262.657135 222.790741,263.759155 222.017929,266.379639
M287.494049,281.377747
	C288.944702,282.882538 289.604309,285.228210 292.710022,285.088928
	C290.600311,282.865631 288.490631,280.642334 286.380920,278.419037
	C286.133423,279.051361 286.257507,279.350983 286.418945,279.628937
	C286.663849,280.050568 286.934662,280.457092 287.494049,281.377747
z"/>
</svg>
